<mxfile host="app.diagrams.net" modified="2024-02-23T01:46:52.163Z" agent="Mozilla/5.0 (Windows NT 10.0; Win64; x64) AppleWebKit/537.36 (KHTML, like Gecko) Chrome/122.0.0.0 Safari/537.36 Edg/122.0.0.0" version="23.1.6" etag="DCeQrLzmfG7ayLotJZbX" type="github">
  <diagram name="Page-1" id="JDeAP9F_E0PaRD82SjDE">
    <mxGraphModel>
      <root>
        <mxCell id="0" />
        <mxCell id="1" parent="0" />
      </root>
    </mxGraphModel>
  </diagram>
</mxfile>
